<?xml version="1.0" standalone="no"?><!DOCTYPE svg PUBLIC "-//W3C//DTD SVG 1.1//EN" "http://www.w3.org/Graphics/SVG/1.1/DTD/svg11.dtd"><svg t="1716689835454" class="icon" viewBox="0 0 1024 1024" version="1.1" xmlns="http://www.w3.org/2000/svg" p-id="22802" xmlns:xlink="http://www.w3.org/1999/xlink" width="200" height="200"><path d="M512 0a89.043478 89.043478 0 0 1 89.043478 89.043478v44.521739H422.956522V89.043478a89.043478 89.043478 0 0 1 89.043478-89.043478zM155.826087 178.086957v756.869565a89.043478 89.043478 0 0 0 89.043478 89.043478h534.26087a89.043478 89.043478 0 0 0 89.043478-89.043478V178.086957z m222.608696 623.304347a44.521739 44.521739 0 0 1-89.043479 0V311.652174a44.521739 44.521739 0 0 1 89.043479 0z m178.086956 0a44.521739 44.521739 0 0 1-89.043478 0V311.652174a44.521739 44.521739 0 0 1 89.043478 0z m178.086957 0a44.521739 44.521739 0 0 1-89.043479 0V311.652174a44.521739 44.521739 0 0 1 89.043479 0z" fill="#F55E55" p-id="22803"></path><path d="M66.782609 89.043478m44.521739 0l801.391304 0q44.521739 0 44.521739 44.521739l0 0q0 44.521739-44.521739 44.52174l-801.391304 0q-44.521739 0-44.521739-44.52174l0 0q0-44.521739 44.521739-44.521739Z" fill="#F9BBB8" p-id="22804"></path></svg>