<?xml version="1.0" standalone="no"?><!DOCTYPE svg PUBLIC "-//W3C//DTD SVG 1.1//EN" "http://www.w3.org/Graphics/SVG/1.1/DTD/svg11.dtd"><svg t="1716800135473" class="icon" viewBox="0 0 1466 1024" version="1.1" xmlns="http://www.w3.org/2000/svg" p-id="7635" xmlns:xlink="http://www.w3.org/1999/xlink" width="68.71875" height="48"><path d="M188.486841 560.010492a56.739672 56.739672 0 0 1 0-96.356722L745.139955 48.010492c35.252459-26.523279 64.461639-11.75082 64.46164 33.57377v862.174427c0 44.317377-29.20918 58.754098-64.46164 33.57377z" fill="#000000" p-id="7636"></path><path d="M845.189791 560.010492a56.739672 56.739672 0 0 1 0-96.356722L1402.178644 48.010492c35.252459-26.523279 64.461639-11.75082 64.461639 33.57377v862.174427c0 44.317377-29.20918 58.754098-64.461639 33.57377zM0.473726 80.577049A73.19082 73.19082 0 0 1 62.249464 0a73.19082 73.19082 0 0 1 61.44 80.577049v862.845902a73.19082 73.19082 0 0 1-61.775738 80.577049A73.19082 73.19082 0 0 1 0.473726 943.422951z" fill="#000000" p-id="7637"></path></svg>