<?xml version="1.0" standalone="no"?><!DOCTYPE svg PUBLIC "-//W3C//DTD SVG 1.1//EN" "http://www.w3.org/Graphics/SVG/1.1/DTD/svg11.dtd"><svg t="1716683102034" class="icon" viewBox="0 0 1152 1024" version="1.1" xmlns="http://www.w3.org/2000/svg" p-id="9576" xmlns:xlink="http://www.w3.org/1999/xlink" width="225" height="200"><path d="M71.868025 674.725984a46.394955 46.394955 0 0 1-56.82582-32.444472A410.38737 410.38737 0 0 1 0.00384 530.421677v-0.511945a418.514487 418.514487 0 0 1 120.114938-295.007918 402.516226 402.516226 0 0 1 288.672606-122.226707h431.505074V29.036202c0-26.749091 17.982044-36.795998 40.059644-22.205585l198.122454 130.161845c22.141592 14.52642 21.88562 37.88388-0.511944 52.026342l-197.098566 124.210492c-22.333571 14.206455-40.571588 3.903575-40.571588-22.909508V206.872863H410.071245c-175.340932 0.191979-317.533468 145.00823-317.533468 323.548814 0 30.71666 4.223541 60.473424 12.030692 88.694354a47.098878 47.098878 0 0 1-32.380479 55.417973l-0.319965 0.19198z m1065.10017-292.704169A426.833582 426.833582 0 0 1 1151.878574 493.945643a419.026431 419.026431 0 0 1-120.114938 295.199897 402.516226 402.516226 0 0 1-288.800593 122.034729H311.521962v83.95887c0 26.685098-17.982044 36.668012-40.123636 22.333571l-198.058461-130.289831c-22.141592-14.654406-21.88562-38.011866 0.511944-52.026342l197.098566-124.274485c22.397564-14.142462 40.763567-3.839582 40.763567 22.845515v83.446925h430.097226c175.404925-0.127986 317.725447-145.00823 317.725448-323.548814 0-30.652667-4.223541-60.40943-12.094685-88.694354a46.71492 46.71492 0 0 1 45.179087-56.441862 46.394955 46.394955 0 0 1 44.347177 33.148395v0.383958z" fill="#040000" p-id="9577"></path></svg>