<?xml version="1.0" standalone="no"?><!DOCTYPE svg PUBLIC "-//W3C//DTD SVG 1.1//EN" "http://www.w3.org/Graphics/SVG/1.1/DTD/svg11.dtd"><svg t="1716800157772" class="icon" viewBox="0 0 1024 1024" version="1.1" xmlns="http://www.w3.org/2000/svg" p-id="9516" xmlns:xlink="http://www.w3.org/1999/xlink" width="48" height="48"><path d="M992 131.2c-17.92 0-32 14.08-32 32v289.28L529.28 172.16c-9.6-6.4-22.4-7.04-32.64-1.28-10.24 5.76-16.64 16.64-16.64 28.16v254.08L49.28 172.16c-9.6-6.4-22.4-7.04-32.64-1.28C6.4 176.64 0 187.52 0 199.04v629.76c0 11.52 6.4 22.4 16.64 28.16 4.48 2.56 10.24 3.84 15.36 3.84 6.4 0 12.16-1.92 17.92-5.12L480 571.52v257.28c0 11.52 6.4 22.4 16.64 28.16 4.48 2.56 10.24 3.84 15.36 3.84 6.4 0 12.16-1.92 17.92-5.12L960 571.52v293.12c0 17.92 14.08 32 32 32s32-14.08 32-32V163.2c0-17.28-14.08-32-32-32z" p-id="9517" fill="#000000"></path></svg>