<?xml version="1.0" standalone="no"?><!DOCTYPE svg PUBLIC "-//W3C//DTD SVG 1.1//EN" "http://www.w3.org/Graphics/SVG/1.1/DTD/svg11.dtd"><svg t="1716800205213" class="icon" viewBox="0 0 1024 1024" version="1.1" xmlns="http://www.w3.org/2000/svg" p-id="12628" xmlns:xlink="http://www.w3.org/1999/xlink" width="48" height="48"><path d="M512 512m-450.56 0a450.56 450.56 0 1 0 901.12 0 450.56 450.56 0 1 0-901.12 0Z" fill="#131415" p-id="12629"></path><path d="M399.36 348.16a30.72 30.72 0 0 1 30.72 30.72v266.24a30.72 30.72 0 0 1-61.44 0v-266.24a30.72 30.72 0 0 1 30.72-30.72z m225.28 0a30.72 30.72 0 0 1 30.72 30.72v266.24a30.72 30.72 0 0 1-61.44 0v-266.24a30.72 30.72 0 0 1 30.72-30.72z" fill="#FFFFFF" p-id="12630"></path></svg>