<?xml version="1.0" standalone="no"?><!DOCTYPE svg PUBLIC "-//W3C//DTD SVG 1.1//EN" "http://www.w3.org/Graphics/SVG/1.1/DTD/svg11.dtd"><svg t="1716683119222" class="icon" viewBox="0 0 1024 1024" version="1.1" xmlns="http://www.w3.org/2000/svg" p-id="10556" xmlns:xlink="http://www.w3.org/1999/xlink" width="200" height="200"><path d="M733.184 829.27616h-134.71744a98.304 98.304 0 0 1-86.75328-52.10112l-44.2368-82.98496a57.344 57.344 0 0 1 101.21216-53.94432l39.60832 74.3424H733.184v-39.97696c0-9.54368 3.39968-18.75968 9.6256-26.13248a42.84416 42.84416 0 0 1 59.22816-5.44768l120.95488 97.32096a40.22272 40.22272 0 0 1 0 63.16032l-120.95488 97.32096c-7.53664 6.06208-16.9984 9.37984-26.78784 9.37984a41.53344 41.53344 0 0 1-42.06592-40.96v-39.97696z m0-496.06656h-124.88704L362.98752 793.47712a98.304 98.304 0 0 1-86.75328 52.06016H118.784a57.344 57.344 0 0 1 0-114.688h147.61984l245.3504-460.26752A98.304 98.304 0 0 1 598.4256 218.48064H733.184V180.79744c0-22.60992 18.8416-40.96 42.06592-40.96 9.78944 0 19.2512 3.31776 26.78784 9.4208l120.95488 97.28a40.22272 40.22272 0 0 1 0 63.16032l-120.95488 97.32096a42.84416 42.84416 0 0 1-59.22816-5.48864 40.30464 40.30464 0 0 1-9.6256-26.09152V333.2096zM266.40384 316.90752H118.784a57.344 57.344 0 1 1 0-114.688h157.45024a98.304 98.304 0 0 1 86.75328 52.06016l52.8384 99.16416a57.344 57.344 0 1 1-101.1712 53.94432l-48.25088-90.5216z" fill="#000000" p-id="10557"></path></svg>